# xmcd
#
# Track frame offsets:
#	150
#	14847
#	30309
#	45671
#	59184
#	87294
#	103255
#	115615
#	129511
#	141732
#	161216
#	180910
#	195660
#	210324
#	238413
#	257180
#
# Disc length: 3676 seconds
#
# Revision: 1
# Processed by: cddbd v1.5.1PL2 Copyright (c) Steve Scherf et al.
# Submitted via: audiograbber 1.83.01
#
DISCID=ee0e5a10
DTITLE=Spencers - Live At The Mountain Arts Center, Prestonsburg, KY
DYEAR=2003
DGENRE=Southern Gospel
TTITLE0=Bigger Than Any Mountain
TTITLE1=Chances Are
TTITLE2=Rock Of Ages
TTITLE3=I Never Shall Forget The Day
TTITLE4=Touched By The Power Of God
TTITLE5=Far Side Banks Of Jordan
TTITLE6=The Old Ship Of Zion
TTITLE7=The Old Country Church
TTITLE8=Setting My House In Order
TTITLE9=Were You There
TTITLE10=I'll Take Your Place
TTITLE11=Little Mountain Church
TTITLE12=Home Free
TTITLE13=Drinking From My Saucer
TTITLE14=Two Coats
TTITLE15=I'll Put On A Crown
EXTD=
EXTT0=
EXTT1=
EXTT2=
EXTT3=
EXTT4=
EXTT5=
EXTT6=
EXTT7=
EXTT8=
EXTT9=
EXTT10=
EXTT11=
EXTT12=
EXTT13=
EXTT14=
EXTT15=
PLAYORDER=
